<?xml version="1.0" standalone="no"?>
<!DOCTYPE svg PUBLIC "-//W3C//DTD SVG 20010904//EN"
 "http://www.w3.org/TR/2001/REC-SVG-20010904/DTD/svg10.dtd">
<svg version="1.0" xmlns="http://www.w3.org/2000/svg"
 width="293.240894pt" height="283.696421pt" viewBox="0 0 293.240894 283.696421"
 preserveAspectRatio="xMidYMid meet">
<metadata>
Created by potrace 1.12, written by Peter Selinger 2001-2015
</metadata>
<g transform="translate(-27.000000,293.849076) scale(0.100000,-0.100000)"
fill="#FFFFFF" stroke="none">
<path d="M1046 2929 c-95 -9 -216 -47 -278 -86 -21 -13 -42 -23 -48 -23 -5 0
-10 -4 -10 -8 0 -5 -10 -13 -23 -19 -42 -19 -173 -151 -220 -222 -114 -169
-153 -294 -164 -516 -8 -178 24 -329 113 -520 37 -82 146 -248 175 -268 26
-19 119 -16 224 8 33 7 84 19 113 25 28 7 52 16 52 20 0 5 -24 37 -53 72 -111
132 -221 310 -248 401 -49 164 -49 282 -1 432 29 88 102 180 206 256 91 67
280 89 417 49 130 -39 264 -165 389 -367 25 -40 51 -72 57 -73 7 0 30 27 50
61 103 165 227 298 326 348 79 39 128 51 217 51 180 0 311 -61 404 -189 88
-120 110 -190 109 -341 0 -130 -23 -214 -91 -345 -31 -59 -142 -228 -161 -245
-4 -3 -18 -21 -33 -40 -53 -70 -111 -134 -243 -270 -93 -96 -385 -378 -438
-422 -12 -10 -38 -33 -57 -51 -20 -18 -56 -48 -80 -67 -24 -19 -74 -60 -110
-91 -36 -30 -89 -74 -118 -97 -51 -40 -52 -42 -34 -59 24 -24 198 -182 231
-210 31 -28 32 -28 57 -5 10 9 89 80 174 156 85 76 160 144 165 150 6 7 42 40
80 76 302 275 610 604 750 800 22 30 42 57 45 60 25 24 127 235 154 320 43
137 44 142 52 220 32 306 -61 590 -257 782 -110 108 -200 164 -339 211 -68 24
-110 32 -210 41 -82 7 -238 -18 -340 -55 -76 -27 -180 -95 -258 -168 -18 -17
-36 -31 -40 -31 -4 0 -20 12 -37 26 -57 48 -70 59 -105 84 -53 39 -170 98
-221 110 -60 15 -209 40 -234 38 -11 0 -60 -5 -109 -9z"/>
<path d="M2149 1661 c-41 -42 -41 -98 2 -140 39 -39 78 -41 119 -4 25 22 30
34 30 74 0 40 -4 51 -31 73 -41 35 -83 34 -120 -3z"/>
<path d="M1478 1513 c-24 -27 -30 -57 -18 -89 14 -36 26 -44 71 -44 41 0 69
30 69 75 0 45 -28 75 -70 75 -23 0 -43 -7 -52 -17z"/>
<path d="M2012 1368 c-32 -29 -74 -67 -93 -83 -53 -47 -241 -199 -269 -218
-248 -168 -442 -273 -585 -316 -22 -7 -49 -16 -60 -21 -31 -13 -146 -40 -185
-42 -46 -4 -50 -28 -8 -52 187 -110 249 -112 443 -15 242 122 516 368 741 664
81 107 99 135 85 135 -6 0 -37 -24 -69 -52z"/>
<path d="M278 1344 c-5 -4 -8 -45 -8 -90 0 -185 88 -296 264 -330 175 -34 433
50 656 214 89 65 200 173 184 179 -7 2 -39 -14 -73 -36 -74 -47 -269 -144
-331 -164 -172 -56 -376 -69 -479 -32 -88 32 -158 110 -189 210 -9 31 -20 53
-24 49z"/>
</g>
</svg>
